# xmcd CD database file
#
# Track frame offsets:
#	176
#	14448
#	28861
#	44728
#	60201
#	72353
#	84781
#	98677
#	112449
#	125405
#	142152
#	154479
#	171534
#
# Disc length: 2499 seconds
#
# Revision: 0
# Processed by: cddbd v1.5.2PL0 Copyright (c) Steve Scherf et al.
# Submitted via: CDex 1.51
#
DISCID=be09c10d
DTITLE=INDIANS - INDIANS
DYEAR=1900
DGENRE=Country
TTITLE0=FLOWERS ON THE WALL
TTITLE1=MOODY BLUE 
TTITLE2=SILVER WINGS
TTITLE3=LITTLE ARROWS
TTITLE4=BETTER MAN
TTITLE5=SHE THINKS I SILL CARE
TTITLE6=GHOST RIDERS
TTITLE7=FOR THE GOOD TIMES
TTITLE8=DID SHE MENTION MY NAME
TTITLE9=CIFFS OF DOONEEN
TTITLE10=LUCKY ARMS
TTITLE11=IF TOMORROW NEVER COMES
TTITLE12=IF WE'RE NOT BACK IN LOVE BY MONDAY
EXTD=
EXTT0=
EXTT1=
EXTT2=
EXTT3=
EXTT4=
EXTT5=
EXTT6=
EXTT7=
EXTT8=
EXTT9=
EXTT10=
EXTT11=
EXTT12=
PLAYORDER=
